<svg preserveAspectRatio="none" viewBox="0 0 1024 1024" width="20" height="20" xmlns="http://www.w3.org/2000/svg">
  <path
    d="m969.6 351.25q-8.6-20.85-19.4-40.85-6.1-11.35-12.9-22.4-29.35-47.55-71.55-89.8-138.25-138.25-333.8-138.25-195.5 0-333.75 138.25-138.25 138.25-138.25 333.75 0 195.55 138.25 333.8 138.25 138.2 333.75 138.2 195.55 0 333.8-138.2 76.15-76.2 110.35-169.75 27.85-76.25 27.85-164.05 0-67.35-16.4-127.95-1.85-6.85-3.9-13.6-6.15-19.95-14.05-39.15z"
    fill-opacity=".098039" />
  <path
    d="m969.7 392q-1.75-6.85-3.65-13.6-1.52421875-5.28554687-3.2-10.55-2.47128906-7.946875-5.25-15.8-9.75-27.55-23.15-53.65-5.8-11.35-12.3-22.4-30.65-52-76.35-97.75-109-109-253.65-132.05-24.5-3.9-50.05-5.35-14.9-.85-30.1-.85-14.1 0-27.9.75-177.55 9.2-305.85 137.5-138.25 138.25-138.25 333.75 0 195.55 138.25 333.8 84.79003906 84.75703125 191.1 117.55 54.53808594 16.81308594 114.75 19.95.2 0 .4 0 12.15.6 24.5.7 1.5 0 3 0 15.25 0 30.1-.8 3.5-.2 6.95-.45 30.05-2.15 58.7-7.7 11.8-2.3 23.4-5.15 120.6-30.05 214.65-124.1 72.9-72.95 107.35-161.8 27.75-71.6 30.55-153.5.3-9.2.3-18.5 0-1 0-2 0-.5 0-1-.35-61.3-14.3-117z"
    fill="#333" />
  <path
    d="m762.15 527.4-81-81h-54.35l-68-68-57.55 86.65-21.9.85-105.55-105.55-60.1 68.9 14.2 14.2-70.9 213.05 323.05 323.05q14.02148437-1.85019531 27.7-4.5 11.8-2.3 23.4-5.15 120.6-30.05 214.65-124.1 72.9-72.95 107.35-161.8 18.00429688-46.45429687 25.5-97.25l-140.3-140.3z"
    fill-opacity=".2" />
  <path
    d="m306.25 444.3q-.5-.15-12-4.5-17.45-6.55-30.15-6.55-13.35 0-26 5.8-13.05 6.05-23.15 17.3-22.95 25.65-22.95 67.75 0 22.05 7.4 46.8 7 23.35 18.95 43.9 11.9 20.45 25.4 32.5 14.35 12.7 27 12.7 5.25 0 22.3-6.1 17.05-6.1 27.3-6.1 9.35 0 25.15 5.9 15.75 5.9 24.4 5.9 23.85 0 47.5-39.7 7.35-12.45 13.85-27.35l5-12.4q-10.1-3.9-20.15-13.5-20.2-19.15-20.2-47.5 0-25.1 16.2-43.45 8.1-9.15 16.2-13.3-4.15-7.5-13.55-14.95-18.8-15-45.15-15-14 0-32.05 6.95-8.6 3.5-12.15 4.8-5.95 2.15-9.2 2.15-3.8 0-9.95-2.05m252.55-65.9h-53.6v68h-27.6v41.25h27.6v120.35q0 24.35 13.85 37.8 14.2 13.8 40.55 13.8 17.2 0 32.8-4.8 15.9-4.9 26.4-9.55l-10.8-42.4q-6.9 2.8-11.6 4.3-10.5 3.3-17.6 3.3-9.3 0-14.4-4.8-5.6-5.2-5.6-15.65v-102.35h44v-41.25h-44zm-201.15-14.75q-18.6 6.6-30.9 22.8-10.95 14.4-13.1 30.05-1.05 7.8.05 12.75l4.05.25q5.1 0 10.45-1.35 17.1-4.2 30.15-19.9 12.2-14.7 15.05-32.75.9-5.65.75-10.95l-.35-4.2q-6.85.05-16.15 3.3m345.5 292.35h58l77.2-209.55h-50.4l-53.6 166-53.2-166.05h-55.2z"
    fill="#fff" />
</svg>
